<?xml version="1.0" standalone="no"?>
<!DOCTYPE svg PUBLIC "-//W3C//DTD SVG 20010904//EN"
 "http://www.w3.org/TR/2001/REC-SVG-20010904/DTD/svg10.dtd">
<svg version="1.0" xmlns="http://www.w3.org/2000/svg"
 width="980.000000pt" height="437.000000pt" viewBox="0 0 980.000000 437.000000"
 preserveAspectRatio="xMidYMid meet">

<g transform="translate(0.000000,437.000000) scale(0.100000,-0.100000)"
fill="#000000" stroke="none">
<path d="M6790 4320 c-146 -22 -270 -39 -276 -40 -11 0 -36 -90 -25 -90 3 0
57 7 119 16 62 9 115 14 119 11 4 -5 -141 -627 -163 -699 -5 -16 0 -17 43 -12
26 4 51 9 55 13 4 3 45 165 92 360 48 195 88 356 90 358 1 2 56 10 122 20 65
9 122 19 126 22 3 3 10 23 13 44 7 36 6 37 -21 36 -16 0 -148 -18 -294 -39z"/>
<path d="M6300 4253 c-19 -3 -38 -8 -42 -12 -7 -6 -198 -781 -198 -801 0 -8
88 -3 99 6 1 1 45 177 97 391 51 213 96 396 98 406 2 9 -1 16 -7 15 -7 0 -28
-3 -47 -5z"/>
<path d="M5956 4201 l-30 -6 -67 -280 c-88 -362 -84 -350 -131 -401 -48 -52
-135 -84 -230 -84 -49 0 -63 4 -83 25 -14 13 -25 36 -25 51 0 22 131 582 145
623 4 11 -5 12 -47 7 -29 -4 -54 -8 -55 -9 -10 -10 -146 -602 -146 -637 -1
-65 25 -108 81 -132 113 -50 362 13 446 113 50 59 66 109 141 419 41 170 75
312 75 315 0 6 -36 5 -74 -4z"/>
<path d="M4971 4070 c-136 -36 -214 -103 -250 -214 -34 -104 -111 -436 -111
-478 0 -142 129 -168 433 -87 35 9 37 12 37 49 0 22 -5 40 -11 40 -6 0 -45 -9
-87 -19 -146 -37 -230 -36 -254 2 -16 25 -6 92 42 294 59 241 74 272 154 309
51 23 221 49 282 42 23 -3 28 2 39 40 l13 42 -107 -1 c-71 0 -130 -6 -180 -19z"/>
<path d="M4140 3948 c-74 -11 -137 -22 -139 -24 -2 -2 -14 -45 -26 -96 -12
-51 -55 -226 -94 -388 -39 -162 -74 -303 -77 -312 -4 -15 0 -17 28 -12 82 13
74 2 109 151 17 76 37 143 43 149 9 10 151 34 197 34 10 0 41 -48 84 -131 l70
-131 55 7 c30 4 56 8 57 9 2 2 -29 61 -67 133 -39 72 -70 136 -70 141 0 5 12
13 26 16 14 4 47 28 73 54 38 39 51 60 69 122 50 173 52 228 6 271 -23 21 -35
24 -117 26 -52 1 -151 -7 -227 -19z m258 -80 c17 -17 15 -58 -9 -151 -35 -140
-59 -157 -255 -186 -71 -10 -130 -18 -131 -17 -3 2 77 329 81 334 3 2 42 10
88 17 109 17 211 18 226 3z"/>
<path d="M3690 3881 c-24 -7 -29 -25 -116 -381 -49 -206 -94 -388 -98 -404
l-7 -29 52 6 c28 4 53 8 54 9 1 2 44 174 94 383 50 209 94 390 97 403 6 19 3
22 -22 21 -16 -1 -40 -4 -54 -8z"/>
<path d="M3211 3824 c-126 -27 -203 -81 -251 -175 -23 -44 -130 -473 -130
-520 0 -79 47 -125 138 -136 49 -5 191 16 280 43 51 15 52 16 52 55 0 21 -2
39 -4 39 -3 0 -44 -9 -93 -21 -119 -28 -214 -30 -242 -5 -31 28 -27 61 29 294
60 245 76 279 156 318 49 24 70 28 181 32 136 5 126 1 147 70 7 22 7 22 -96
21 -57 0 -132 -7 -167 -15z"/>
<path d="M9515 3673 c-173 -27 -286 -93 -342 -200 -33 -62 -133 -434 -133
-495 0 -48 36 -99 90 -125 107 -55 359 -3 473 96 20 18 50 60 66 94 39 80 135
457 126 495 -10 48 -43 90 -85 112 -41 21 -137 33 -195 23z m75 -173 c11 -11
20 -26 20 -32 -1 -38 -100 -383 -117 -406 -29 -39 -87 -64 -162 -70 -72 -5
-101 9 -101 48 0 31 86 354 104 388 19 37 49 59 108 77 66 21 124 19 148 -5z"/>
<path d="M8599 3533 l-176 -25 -105 -407 c-58 -223 -105 -407 -104 -408 5 -6
417 59 459 73 88 29 146 73 178 136 30 58 129 453 129 514 0 72 -38 118 -111
133 -62 13 -56 14 -270 -16z m185 -166 c8 -13 0 -61 -36 -204 -48 -191 -65
-228 -111 -251 -26 -13 -184 -38 -191 -31 -4 3 67 286 113 455 l11 42 78 9
c87 10 121 5 136 -20z"/>
<path d="M7756 3414 c-88 -13 -160 -25 -161 -26 -8 -12 -205 -801 -201 -805 8
-8 168 15 177 25 3 4 19 59 34 122 15 63 30 118 34 122 3 4 34 10 67 13 l62 7
56 -98 c31 -55 60 -105 65 -113 7 -11 25 -12 110 -1 55 7 101 16 101 20 0 4
-30 61 -66 125 -50 90 -63 120 -52 126 98 56 136 112 171 253 32 126 33 151 7
194 -42 69 -132 77 -404 36z m223 -152 c7 -13 5 -39 -5 -83 -17 -71 -33 -101
-67 -124 -20 -13 -216 -49 -225 -41 -3 3 15 80 49 208 9 35 11 37 72 46 108
17 165 15 176 -6z"/>
<path d="M7098 3321 c-64 -9 -119 -19 -121 -21 -14 -16 -468 -843 -464 -846 5
-5 188 24 195 31 3 3 24 40 47 83 l41 77 115 17 c62 9 129 19 147 22 l32 5 0
-73 c0 -40 2 -75 5 -78 5 -5 186 19 193 26 4 4 -44 658 -54 734 -3 23 -8 42
-12 41 -4 -1 -60 -9 -124 -18z m-19 -373 l1 -117 -32 -6 c-95 -15 -162 -24
-166 -21 -2 2 39 83 90 179 l93 176 7 -47 c3 -26 7 -100 7 -164z"/>
<path d="M6345 3224 c-146 -29 -253 -108 -293 -218 -11 -28 -43 -144 -72 -257
-58 -226 -59 -255 -14 -308 57 -68 217 -67 422 0 l62 21 0 72 0 73 -83 -22
c-129 -35 -183 -40 -212 -21 -17 11 -25 26 -25 44 0 42 86 358 107 393 32 56
79 72 223 77 l127 5 22 68 c12 38 19 74 16 79 -9 14 -197 11 -280 -6z"/>
<path d="M5811 3140 c-29 -5 -57 -12 -61 -17 -11 -11 -212 -795 -206 -801 8
-7 167 15 176 25 4 4 51 179 104 388 54 209 100 388 102 398 6 19 -18 21 -115
7z"/>
<path d="M5285 3062 c-43 -3 -317 -40 -351 -47 -18 -4 -32 -50 -124 -405 -57
-220 -101 -403 -98 -406 3 -3 45 0 92 7 80 11 87 14 93 38 52 211 57 225 86
232 15 4 45 9 65 11 l36 3 63 -105 c34 -58 63 -109 65 -113 4 -9 180 12 198
23 7 4 -14 51 -55 123 -36 65 -65 119 -65 122 0 2 12 11 28 19 39 21 91 74
113 117 10 20 31 85 46 144 25 99 26 110 12 147 -8 23 -25 50 -39 60 -28 21
-104 34 -165 30z m0 -166 c39 -29 -10 -197 -66 -223 -34 -16 -219 -42 -219
-31 0 19 53 224 60 231 6 7 139 32 191 36 8 0 23 -5 34 -13z"/>
<path d="M8075 2413 c-172 -27 -291 -97 -345 -203 -33 -64 -122 -447 -117
-499 13 -118 130 -164 318 -127 162 33 258 95 308 199 41 85 126 450 117 499
-14 77 -85 126 -189 133 -34 2 -75 1 -92 -2z m75 -173 c11 -11 20 -28 20 -37
-1 -40 -88 -373 -103 -397 -40 -60 -204 -100 -247 -61 -11 10 -20 28 -20 40 0
36 79 348 96 382 20 38 52 61 109 79 63 20 122 17 145 -6z"/>
<path d="M7468 2316 c-43 -7 -79 -14 -82 -17 -2 -2 -77 -123 -166 -269 -177
-288 -168 -275 -174 -269 -2 2 -20 109 -40 238 -19 128 -38 236 -40 239 -10 9
-181 -19 -186 -31 -12 -30 -246 -802 -244 -805 1 -2 43 2 91 8 l89 12 64 212
c35 116 66 215 70 219 4 5 17 -56 29 -135 12 -79 24 -148 26 -154 2 -8 23 -8
67 -3 135 18 115 1 239 195 61 96 113 173 114 172 2 -2 -15 -97 -37 -211 -22
-114 -38 -210 -35 -213 7 -7 177 18 177 26 0 3 31 179 70 391 38 211 70 390
70 397 0 14 2 14 -102 -2z"/>
<path d="M6095 2123 c-93 -14 -171 -26 -172 -27 -2 -2 -193 -796 -193 -805 0
-10 170 15 180 26 4 4 20 61 35 125 14 65 30 120 33 122 4 2 34 7 67 10 l60 7
65 -110 c48 -82 70 -111 85 -111 43 0 185 23 185 31 0 4 -29 58 -65 120 -36
61 -65 114 -65 118 0 3 23 20 50 38 63 42 94 96 125 218 29 112 30 143 11 190
-32 76 -134 88 -401 48z m215 -153 c14 -26 -14 -149 -41 -184 -11 -13 -34 -29
-52 -34 -35 -11 -197 -35 -202 -30 -1 2 11 58 27 124 l29 122 67 10 c117 16
160 15 172 -8z"/>
<path d="M5440 2059 c-174 -22 -296 -99 -350 -222 -25 -58 -110 -414 -110
-464 0 -89 84 -153 200 -153 147 1 317 63 384 142 20 23 45 65 56 95 35 94
112 434 106 467 -20 106 -124 155 -286 135z m65 -161 c14 -6 28 -21 31 -32 7
-30 -82 -385 -104 -415 -28 -38 -90 -65 -158 -69 -75 -5 -104 8 -104 47 0 44
79 361 98 393 38 65 169 107 237 76z"/>
<path d="M4700 1927 c-157 -22 -286 -42 -288 -43 -6 -4 -41 -148 -37 -152 2
-3 53 3 112 11 59 9 109 15 110 13 1 -1 -33 -148 -76 -326 -44 -179 -78 -326
-78 -326 4 -3 179 25 184 29 2 3 38 144 79 313 41 170 77 316 79 325 4 12 30
19 103 28 53 7 104 14 113 17 14 4 49 106 49 144 0 15 -37 12 -350 -33z"/>
</g>
</svg>
